<mxfile host="app.diagrams.net" modified="2021-05-31T16:57:15.174Z" agent="5.0 (Windows NT 10.0; Win64; x64) AppleWebKit/537.36 (KHTML, like Gecko) Chrome/90.0.4430.212 Safari/537.36 OPR/76.0.4017.154" etag="4PMHy1LUI61RGYXjt_rp" version="14.7.3" type="github">
  <diagram id="C5RBs43oDa-KdzZeNtuy" name="Page-1">
    <mxGraphModel dx="932" dy="548" grid="1" gridSize="10" guides="1" tooltips="1" connect="1" arrows="1" fold="1" page="1" pageScale="1" pageWidth="827" pageHeight="1169" math="0" shadow="0">
      <root>
        <mxCell id="WIyWlLk6GJQsqaUBKTNV-0" />
        <mxCell id="WIyWlLk6GJQsqaUBKTNV-1" parent="WIyWlLk6GJQsqaUBKTNV-0" />
        <mxCell id="zkfFHV4jXpPFQw0GAbJ--0" value="Ennemi" style="swimlane;fontStyle=0;align=center;verticalAlign=top;childLayout=stackLayout;horizontal=1;startSize=26;horizontalStack=0;resizeParent=1;resizeLast=0;collapsible=1;marginBottom=0;rounded=0;shadow=0;strokeWidth=1;" parent="WIyWlLk6GJQsqaUBKTNV-1" vertex="1">
          <mxGeometry x="220" y="120" width="160" height="140" as="geometry">
            <mxRectangle x="230" y="140" width="160" height="26" as="alternateBounds" />
          </mxGeometry>
        </mxCell>
        <mxCell id="zkfFHV4jXpPFQw0GAbJ--1" value="x" style="text;align=left;verticalAlign=top;spacingLeft=4;spacingRight=4;overflow=hidden;rotatable=0;points=[[0,0.5],[1,0.5]];portConstraint=eastwest;" parent="zkfFHV4jXpPFQw0GAbJ--0" vertex="1">
          <mxGeometry y="26" width="160" height="26" as="geometry" />
        </mxCell>
        <mxCell id="zkfFHV4jXpPFQw0GAbJ--2" value="y" style="text;align=left;verticalAlign=top;spacingLeft=4;spacingRight=4;overflow=hidden;rotatable=0;points=[[0,0.5],[1,0.5]];portConstraint=eastwest;rounded=0;shadow=0;html=0;" parent="zkfFHV4jXpPFQw0GAbJ--0" vertex="1">
          <mxGeometry y="52" width="160" height="26" as="geometry" />
        </mxCell>
        <mxCell id="zkfFHV4jXpPFQw0GAbJ--3" value="stepIndex" style="text;align=left;verticalAlign=top;spacingLeft=4;spacingRight=4;overflow=hidden;rotatable=0;points=[[0,0.5],[1,0.5]];portConstraint=eastwest;rounded=0;shadow=0;html=0;" parent="zkfFHV4jXpPFQw0GAbJ--0" vertex="1">
          <mxGeometry y="78" width="160" height="26" as="geometry" />
        </mxCell>
        <mxCell id="zkfFHV4jXpPFQw0GAbJ--4" value="" style="line;html=1;strokeWidth=1;align=left;verticalAlign=middle;spacingTop=-1;spacingLeft=3;spacingRight=3;rotatable=0;labelPosition=right;points=[];portConstraint=eastwest;" parent="zkfFHV4jXpPFQw0GAbJ--0" vertex="1">
          <mxGeometry y="104" width="160" height="8" as="geometry" />
        </mxCell>
        <mxCell id="zkfFHV4jXpPFQw0GAbJ--5" value="step(self)" style="text;align=left;verticalAlign=top;spacingLeft=4;spacingRight=4;overflow=hidden;rotatable=0;points=[[0,0.5],[1,0.5]];portConstraint=eastwest;" parent="zkfFHV4jXpPFQw0GAbJ--0" vertex="1">
          <mxGeometry y="112" width="160" height="28" as="geometry" />
        </mxCell>
        <mxCell id="zkfFHV4jXpPFQw0GAbJ--6" value="Mecha" style="swimlane;fontStyle=0;align=center;verticalAlign=top;childLayout=stackLayout;horizontal=1;startSize=30;horizontalStack=0;resizeParent=1;resizeLast=0;collapsible=1;marginBottom=0;rounded=0;shadow=0;strokeWidth=1;swimlaneFillColor=none;" parent="WIyWlLk6GJQsqaUBKTNV-1" vertex="1">
          <mxGeometry x="130" y="330" width="160" height="292" as="geometry">
            <mxRectangle x="130" y="380" width="160" height="26" as="alternateBounds" />
          </mxGeometry>
        </mxCell>
        <mxCell id="zkfFHV4jXpPFQw0GAbJ--7" value="x" style="text;align=left;verticalAlign=top;spacingLeft=4;spacingRight=4;overflow=hidden;rotatable=0;points=[[0,0.5],[1,0.5]];portConstraint=eastwest;" parent="zkfFHV4jXpPFQw0GAbJ--6" vertex="1">
          <mxGeometry y="30" width="160" height="26" as="geometry" />
        </mxCell>
        <mxCell id="zkfFHV4jXpPFQw0GAbJ--8" value="y&#xa;" style="text;align=left;verticalAlign=top;spacingLeft=4;spacingRight=4;overflow=hidden;rotatable=0;points=[[0,0.5],[1,0.5]];portConstraint=eastwest;rounded=0;shadow=0;html=0;" parent="zkfFHV4jXpPFQw0GAbJ--6" vertex="1">
          <mxGeometry y="56" width="160" height="34" as="geometry" />
        </mxCell>
        <mxCell id="E1siyjuTaNm7iV4Au7DL-0" value="&amp;nbsp;sprites" style="text;html=1;resizable=0;autosize=1;align=left;verticalAlign=middle;points=[];fillColor=none;strokeColor=none;rounded=0;" vertex="1" parent="zkfFHV4jXpPFQw0GAbJ--6">
          <mxGeometry y="90" width="160" height="20" as="geometry" />
        </mxCell>
        <mxCell id="zkfFHV4jXpPFQw0GAbJ--10" value="pv" style="text;align=left;verticalAlign=top;spacingLeft=4;spacingRight=4;overflow=hidden;rotatable=0;points=[[0,0.5],[1,0.5]];portConstraint=eastwest;fontStyle=4" parent="zkfFHV4jXpPFQw0GAbJ--6" vertex="1">
          <mxGeometry y="110" width="160" height="26" as="geometry" />
        </mxCell>
        <mxCell id="zkfFHV4jXpPFQw0GAbJ--11" value="rect" style="text;align=left;verticalAlign=top;spacingLeft=4;spacingRight=4;overflow=hidden;rotatable=0;points=[[0,0.5],[1,0.5]];portConstraint=eastwest;" parent="zkfFHV4jXpPFQw0GAbJ--6" vertex="1">
          <mxGeometry y="136" width="160" height="26" as="geometry" />
        </mxCell>
        <mxCell id="E1siyjuTaNm7iV4Au7DL-1" value="&amp;nbsp;rect.topleft" style="text;html=1;resizable=0;autosize=1;align=left;verticalAlign=middle;points=[];fillColor=none;strokeColor=none;rounded=0;" vertex="1" parent="zkfFHV4jXpPFQw0GAbJ--6">
          <mxGeometry y="162" width="160" height="20" as="geometry" />
        </mxCell>
        <mxCell id="E1siyjuTaNm7iV4Au7DL-2" value="&amp;nbsp;i" style="text;html=1;resizable=0;autosize=1;align=left;verticalAlign=middle;points=[];fillColor=none;strokeColor=none;rounded=0;" vertex="1" parent="zkfFHV4jXpPFQw0GAbJ--6">
          <mxGeometry y="182" width="160" height="20" as="geometry" />
        </mxCell>
        <mxCell id="E1siyjuTaNm7iV4Au7DL-3" value="&amp;nbsp;speed" style="text;html=1;resizable=0;autosize=1;align=left;verticalAlign=middle;points=[];fillColor=none;strokeColor=none;rounded=0;" vertex="1" parent="zkfFHV4jXpPFQw0GAbJ--6">
          <mxGeometry y="202" width="160" height="20" as="geometry" />
        </mxCell>
        <mxCell id="zkfFHV4jXpPFQw0GAbJ--9" value="" style="line;html=1;strokeWidth=1;align=left;verticalAlign=middle;spacingTop=-1;spacingLeft=3;spacingRight=3;rotatable=0;labelPosition=right;points=[];portConstraint=eastwest;" parent="zkfFHV4jXpPFQw0GAbJ--6" vertex="1">
          <mxGeometry y="222" width="160" height="10" as="geometry" />
        </mxCell>
        <mxCell id="E1siyjuTaNm7iV4Au7DL-4" value="&amp;nbsp;update(self)" style="text;html=1;resizable=0;autosize=1;align=left;verticalAlign=middle;points=[];fillColor=none;strokeColor=none;rounded=0;" vertex="1" parent="zkfFHV4jXpPFQw0GAbJ--6">
          <mxGeometry y="232" width="160" height="20" as="geometry" />
        </mxCell>
        <mxCell id="E1siyjuTaNm7iV4Au7DL-5" value="&amp;nbsp;draw(self, screen)" style="text;html=1;resizable=0;autosize=1;align=left;verticalAlign=middle;points=[];fillColor=none;strokeColor=none;rounded=0;" vertex="1" parent="zkfFHV4jXpPFQw0GAbJ--6">
          <mxGeometry y="252" width="160" height="20" as="geometry" />
        </mxCell>
        <mxCell id="E1siyjuTaNm7iV4Au7DL-6" value="&amp;nbsp;move(self)" style="text;html=1;resizable=0;autosize=1;align=left;verticalAlign=middle;points=[];fillColor=none;strokeColor=none;rounded=0;" vertex="1" parent="zkfFHV4jXpPFQw0GAbJ--6">
          <mxGeometry y="272" width="160" height="20" as="geometry" />
        </mxCell>
        <mxCell id="zkfFHV4jXpPFQw0GAbJ--12" value="" style="endArrow=block;endSize=10;endFill=0;shadow=0;strokeWidth=1;rounded=0;edgeStyle=elbowEdgeStyle;elbow=vertical;" parent="WIyWlLk6GJQsqaUBKTNV-1" source="zkfFHV4jXpPFQw0GAbJ--6" target="zkfFHV4jXpPFQw0GAbJ--0" edge="1">
          <mxGeometry width="160" relative="1" as="geometry">
            <mxPoint x="200" y="203" as="sourcePoint" />
            <mxPoint x="200" y="203" as="targetPoint" />
          </mxGeometry>
        </mxCell>
        <mxCell id="zkfFHV4jXpPFQw0GAbJ--16" value="" style="endArrow=block;endSize=10;endFill=0;shadow=0;strokeWidth=1;rounded=0;edgeStyle=elbowEdgeStyle;elbow=vertical;" parent="WIyWlLk6GJQsqaUBKTNV-1" target="zkfFHV4jXpPFQw0GAbJ--0" edge="1">
          <mxGeometry width="160" relative="1" as="geometry">
            <mxPoint x="410" y="330" as="sourcePoint" />
            <mxPoint x="310" y="271" as="targetPoint" />
          </mxGeometry>
        </mxCell>
        <mxCell id="E1siyjuTaNm7iV4Au7DL-7" value="Gunman" style="swimlane;fontStyle=0;align=center;verticalAlign=top;childLayout=stackLayout;horizontal=1;startSize=30;horizontalStack=0;resizeParent=1;resizeLast=0;collapsible=1;marginBottom=0;rounded=0;shadow=0;strokeWidth=1;swimlaneFillColor=none;" vertex="1" parent="WIyWlLk6GJQsqaUBKTNV-1">
          <mxGeometry x="334" y="330" width="160" height="292" as="geometry">
            <mxRectangle x="130" y="380" width="160" height="26" as="alternateBounds" />
          </mxGeometry>
        </mxCell>
        <mxCell id="E1siyjuTaNm7iV4Au7DL-8" value="x" style="text;align=left;verticalAlign=top;spacingLeft=4;spacingRight=4;overflow=hidden;rotatable=0;points=[[0,0.5],[1,0.5]];portConstraint=eastwest;" vertex="1" parent="E1siyjuTaNm7iV4Au7DL-7">
          <mxGeometry y="30" width="160" height="26" as="geometry" />
        </mxCell>
        <mxCell id="E1siyjuTaNm7iV4Au7DL-9" value="y&#xa;" style="text;align=left;verticalAlign=top;spacingLeft=4;spacingRight=4;overflow=hidden;rotatable=0;points=[[0,0.5],[1,0.5]];portConstraint=eastwest;rounded=0;shadow=0;html=0;" vertex="1" parent="E1siyjuTaNm7iV4Au7DL-7">
          <mxGeometry y="56" width="160" height="34" as="geometry" />
        </mxCell>
        <mxCell id="E1siyjuTaNm7iV4Au7DL-10" value="&amp;nbsp;sprites" style="text;html=1;resizable=0;autosize=1;align=left;verticalAlign=middle;points=[];fillColor=none;strokeColor=none;rounded=0;" vertex="1" parent="E1siyjuTaNm7iV4Au7DL-7">
          <mxGeometry y="90" width="160" height="20" as="geometry" />
        </mxCell>
        <mxCell id="E1siyjuTaNm7iV4Au7DL-11" value="pv" style="text;align=left;verticalAlign=top;spacingLeft=4;spacingRight=4;overflow=hidden;rotatable=0;points=[[0,0.5],[1,0.5]];portConstraint=eastwest;fontStyle=4" vertex="1" parent="E1siyjuTaNm7iV4Au7DL-7">
          <mxGeometry y="110" width="160" height="26" as="geometry" />
        </mxCell>
        <mxCell id="E1siyjuTaNm7iV4Au7DL-12" value="rect" style="text;align=left;verticalAlign=top;spacingLeft=4;spacingRight=4;overflow=hidden;rotatable=0;points=[[0,0.5],[1,0.5]];portConstraint=eastwest;" vertex="1" parent="E1siyjuTaNm7iV4Au7DL-7">
          <mxGeometry y="136" width="160" height="26" as="geometry" />
        </mxCell>
        <mxCell id="E1siyjuTaNm7iV4Au7DL-13" value="&amp;nbsp;rect.topleft" style="text;html=1;resizable=0;autosize=1;align=left;verticalAlign=middle;points=[];fillColor=none;strokeColor=none;rounded=0;" vertex="1" parent="E1siyjuTaNm7iV4Au7DL-7">
          <mxGeometry y="162" width="160" height="20" as="geometry" />
        </mxCell>
        <mxCell id="E1siyjuTaNm7iV4Au7DL-14" value="&amp;nbsp;i" style="text;html=1;resizable=0;autosize=1;align=left;verticalAlign=middle;points=[];fillColor=none;strokeColor=none;rounded=0;" vertex="1" parent="E1siyjuTaNm7iV4Au7DL-7">
          <mxGeometry y="182" width="160" height="20" as="geometry" />
        </mxCell>
        <mxCell id="E1siyjuTaNm7iV4Au7DL-15" value="&amp;nbsp;speed" style="text;html=1;resizable=0;autosize=1;align=left;verticalAlign=middle;points=[];fillColor=none;strokeColor=none;rounded=0;" vertex="1" parent="E1siyjuTaNm7iV4Au7DL-7">
          <mxGeometry y="202" width="160" height="20" as="geometry" />
        </mxCell>
        <mxCell id="E1siyjuTaNm7iV4Au7DL-16" value="" style="line;html=1;strokeWidth=1;align=left;verticalAlign=middle;spacingTop=-1;spacingLeft=3;spacingRight=3;rotatable=0;labelPosition=right;points=[];portConstraint=eastwest;" vertex="1" parent="E1siyjuTaNm7iV4Au7DL-7">
          <mxGeometry y="222" width="160" height="10" as="geometry" />
        </mxCell>
        <mxCell id="E1siyjuTaNm7iV4Au7DL-17" value="&amp;nbsp;update(self)" style="text;html=1;resizable=0;autosize=1;align=left;verticalAlign=middle;points=[];fillColor=none;strokeColor=none;rounded=0;" vertex="1" parent="E1siyjuTaNm7iV4Au7DL-7">
          <mxGeometry y="232" width="160" height="20" as="geometry" />
        </mxCell>
        <mxCell id="E1siyjuTaNm7iV4Au7DL-18" value="&amp;nbsp;draw(self, screen)" style="text;html=1;resizable=0;autosize=1;align=left;verticalAlign=middle;points=[];fillColor=none;strokeColor=none;rounded=0;" vertex="1" parent="E1siyjuTaNm7iV4Au7DL-7">
          <mxGeometry y="252" width="160" height="20" as="geometry" />
        </mxCell>
        <mxCell id="E1siyjuTaNm7iV4Au7DL-19" value="&amp;nbsp;move(self)" style="text;html=1;resizable=0;autosize=1;align=left;verticalAlign=middle;points=[];fillColor=none;strokeColor=none;rounded=0;" vertex="1" parent="E1siyjuTaNm7iV4Au7DL-7">
          <mxGeometry y="272" width="160" height="20" as="geometry" />
        </mxCell>
        <mxCell id="E1siyjuTaNm7iV4Au7DL-20" value="Cyborg" style="swimlane;fontStyle=0;align=center;verticalAlign=top;childLayout=stackLayout;horizontal=1;startSize=30;horizontalStack=0;resizeParent=1;resizeLast=0;collapsible=1;marginBottom=0;rounded=0;shadow=0;strokeWidth=1;swimlaneFillColor=none;" vertex="1" parent="WIyWlLk6GJQsqaUBKTNV-1">
          <mxGeometry x="530" y="330" width="160" height="292" as="geometry">
            <mxRectangle x="130" y="380" width="160" height="26" as="alternateBounds" />
          </mxGeometry>
        </mxCell>
        <mxCell id="E1siyjuTaNm7iV4Au7DL-21" value="x" style="text;align=left;verticalAlign=top;spacingLeft=4;spacingRight=4;overflow=hidden;rotatable=0;points=[[0,0.5],[1,0.5]];portConstraint=eastwest;" vertex="1" parent="E1siyjuTaNm7iV4Au7DL-20">
          <mxGeometry y="30" width="160" height="26" as="geometry" />
        </mxCell>
        <mxCell id="E1siyjuTaNm7iV4Au7DL-22" value="y&#xa;" style="text;align=left;verticalAlign=top;spacingLeft=4;spacingRight=4;overflow=hidden;rotatable=0;points=[[0,0.5],[1,0.5]];portConstraint=eastwest;rounded=0;shadow=0;html=0;" vertex="1" parent="E1siyjuTaNm7iV4Au7DL-20">
          <mxGeometry y="56" width="160" height="34" as="geometry" />
        </mxCell>
        <mxCell id="E1siyjuTaNm7iV4Au7DL-23" value="&amp;nbsp;sprites" style="text;html=1;resizable=0;autosize=1;align=left;verticalAlign=middle;points=[];fillColor=none;strokeColor=none;rounded=0;" vertex="1" parent="E1siyjuTaNm7iV4Au7DL-20">
          <mxGeometry y="90" width="160" height="20" as="geometry" />
        </mxCell>
        <mxCell id="E1siyjuTaNm7iV4Au7DL-24" value="pv" style="text;align=left;verticalAlign=top;spacingLeft=4;spacingRight=4;overflow=hidden;rotatable=0;points=[[0,0.5],[1,0.5]];portConstraint=eastwest;fontStyle=4" vertex="1" parent="E1siyjuTaNm7iV4Au7DL-20">
          <mxGeometry y="110" width="160" height="26" as="geometry" />
        </mxCell>
        <mxCell id="E1siyjuTaNm7iV4Au7DL-25" value="rect" style="text;align=left;verticalAlign=top;spacingLeft=4;spacingRight=4;overflow=hidden;rotatable=0;points=[[0,0.5],[1,0.5]];portConstraint=eastwest;" vertex="1" parent="E1siyjuTaNm7iV4Au7DL-20">
          <mxGeometry y="136" width="160" height="26" as="geometry" />
        </mxCell>
        <mxCell id="E1siyjuTaNm7iV4Au7DL-26" value="&amp;nbsp;rect.topleft" style="text;html=1;resizable=0;autosize=1;align=left;verticalAlign=middle;points=[];fillColor=none;strokeColor=none;rounded=0;" vertex="1" parent="E1siyjuTaNm7iV4Au7DL-20">
          <mxGeometry y="162" width="160" height="20" as="geometry" />
        </mxCell>
        <mxCell id="E1siyjuTaNm7iV4Au7DL-27" value="&amp;nbsp;i" style="text;html=1;resizable=0;autosize=1;align=left;verticalAlign=middle;points=[];fillColor=none;strokeColor=none;rounded=0;" vertex="1" parent="E1siyjuTaNm7iV4Au7DL-20">
          <mxGeometry y="182" width="160" height="20" as="geometry" />
        </mxCell>
        <mxCell id="E1siyjuTaNm7iV4Au7DL-28" value="&amp;nbsp;speed" style="text;html=1;resizable=0;autosize=1;align=left;verticalAlign=middle;points=[];fillColor=none;strokeColor=none;rounded=0;" vertex="1" parent="E1siyjuTaNm7iV4Au7DL-20">
          <mxGeometry y="202" width="160" height="20" as="geometry" />
        </mxCell>
        <mxCell id="E1siyjuTaNm7iV4Au7DL-29" value="" style="line;html=1;strokeWidth=1;align=left;verticalAlign=middle;spacingTop=-1;spacingLeft=3;spacingRight=3;rotatable=0;labelPosition=right;points=[];portConstraint=eastwest;" vertex="1" parent="E1siyjuTaNm7iV4Au7DL-20">
          <mxGeometry y="222" width="160" height="10" as="geometry" />
        </mxCell>
        <mxCell id="E1siyjuTaNm7iV4Au7DL-30" value="&amp;nbsp;update(self)" style="text;html=1;resizable=0;autosize=1;align=left;verticalAlign=middle;points=[];fillColor=none;strokeColor=none;rounded=0;" vertex="1" parent="E1siyjuTaNm7iV4Au7DL-20">
          <mxGeometry y="232" width="160" height="20" as="geometry" />
        </mxCell>
        <mxCell id="E1siyjuTaNm7iV4Au7DL-31" value="&amp;nbsp;draw(self, screen)" style="text;html=1;resizable=0;autosize=1;align=left;verticalAlign=middle;points=[];fillColor=none;strokeColor=none;rounded=0;" vertex="1" parent="E1siyjuTaNm7iV4Au7DL-20">
          <mxGeometry y="252" width="160" height="20" as="geometry" />
        </mxCell>
        <mxCell id="E1siyjuTaNm7iV4Au7DL-32" value="&amp;nbsp;move(self)" style="text;html=1;resizable=0;autosize=1;align=left;verticalAlign=middle;points=[];fillColor=none;strokeColor=none;rounded=0;" vertex="1" parent="E1siyjuTaNm7iV4Au7DL-20">
          <mxGeometry y="272" width="160" height="20" as="geometry" />
        </mxCell>
        <mxCell id="E1siyjuTaNm7iV4Au7DL-33" value="" style="endArrow=none;html=1;exitX=0.448;exitY=0.001;exitDx=0;exitDy=0;exitPerimeter=0;rounded=0;" edge="1" parent="WIyWlLk6GJQsqaUBKTNV-1">
          <mxGeometry width="50" height="50" relative="1" as="geometry">
            <mxPoint x="601.6800000000001" y="330.29200000000003" as="sourcePoint" />
            <mxPoint x="410" y="295" as="targetPoint" />
            <Array as="points">
              <mxPoint x="600" y="295" />
            </Array>
          </mxGeometry>
        </mxCell>
        <mxCell id="E1siyjuTaNm7iV4Au7DL-34" value="Player" style="swimlane;fontStyle=0;align=center;verticalAlign=top;childLayout=stackLayout;horizontal=1;startSize=30;horizontalStack=0;resizeParent=1;resizeLast=0;collapsible=1;marginBottom=0;rounded=0;shadow=0;strokeWidth=1;swimlaneFillColor=none;" vertex="1" parent="WIyWlLk6GJQsqaUBKTNV-1">
          <mxGeometry x="730" y="330" width="160" height="232" as="geometry">
            <mxRectangle x="130" y="380" width="160" height="26" as="alternateBounds" />
          </mxGeometry>
        </mxCell>
        <mxCell id="E1siyjuTaNm7iV4Au7DL-35" value="pos_x" style="text;align=left;verticalAlign=top;spacingLeft=4;spacingRight=4;overflow=hidden;rotatable=0;points=[[0,0.5],[1,0.5]];portConstraint=eastwest;" vertex="1" parent="E1siyjuTaNm7iV4Au7DL-34">
          <mxGeometry y="30" width="160" height="26" as="geometry" />
        </mxCell>
        <mxCell id="E1siyjuTaNm7iV4Au7DL-36" value="pos_y" style="text;align=left;verticalAlign=top;spacingLeft=4;spacingRight=4;overflow=hidden;rotatable=0;points=[[0,0.5],[1,0.5]];portConstraint=eastwest;rounded=0;shadow=0;html=0;" vertex="1" parent="E1siyjuTaNm7iV4Au7DL-34">
          <mxGeometry y="56" width="160" height="34" as="geometry" />
        </mxCell>
        <mxCell id="E1siyjuTaNm7iV4Au7DL-37" value="&amp;nbsp;sprites" style="text;html=1;resizable=0;autosize=1;align=left;verticalAlign=middle;points=[];fillColor=none;strokeColor=none;rounded=0;" vertex="1" parent="E1siyjuTaNm7iV4Au7DL-34">
          <mxGeometry y="90" width="160" height="20" as="geometry" />
        </mxCell>
        <mxCell id="E1siyjuTaNm7iV4Au7DL-38" value="pv" style="text;align=left;verticalAlign=top;spacingLeft=4;spacingRight=4;overflow=hidden;rotatable=0;points=[[0,0.5],[1,0.5]];portConstraint=eastwest;fontStyle=4" vertex="1" parent="E1siyjuTaNm7iV4Au7DL-34">
          <mxGeometry y="110" width="160" height="26" as="geometry" />
        </mxCell>
        <mxCell id="E1siyjuTaNm7iV4Au7DL-39" value="rect" style="text;align=left;verticalAlign=top;spacingLeft=4;spacingRight=4;overflow=hidden;rotatable=0;points=[[0,0.5],[1,0.5]];portConstraint=eastwest;" vertex="1" parent="E1siyjuTaNm7iV4Au7DL-34">
          <mxGeometry y="136" width="160" height="26" as="geometry" />
        </mxCell>
        <mxCell id="E1siyjuTaNm7iV4Au7DL-40" value="&amp;nbsp;rect.topleft" style="text;html=1;resizable=0;autosize=1;align=left;verticalAlign=middle;points=[];fillColor=none;strokeColor=none;rounded=0;" vertex="1" parent="E1siyjuTaNm7iV4Au7DL-34">
          <mxGeometry y="162" width="160" height="20" as="geometry" />
        </mxCell>
        <mxCell id="E1siyjuTaNm7iV4Au7DL-41" value="&amp;nbsp;i" style="text;html=1;resizable=0;autosize=1;align=left;verticalAlign=middle;points=[];fillColor=none;strokeColor=none;rounded=0;" vertex="1" parent="E1siyjuTaNm7iV4Au7DL-34">
          <mxGeometry y="182" width="160" height="20" as="geometry" />
        </mxCell>
        <mxCell id="E1siyjuTaNm7iV4Au7DL-43" value="" style="line;html=1;strokeWidth=1;align=left;verticalAlign=middle;spacingTop=-1;spacingLeft=3;spacingRight=3;rotatable=0;labelPosition=right;points=[];portConstraint=eastwest;" vertex="1" parent="E1siyjuTaNm7iV4Au7DL-34">
          <mxGeometry y="202" width="160" height="10" as="geometry" />
        </mxCell>
        <mxCell id="E1siyjuTaNm7iV4Au7DL-44" value="&amp;nbsp;update(self)" style="text;html=1;resizable=0;autosize=1;align=left;verticalAlign=middle;points=[];fillColor=none;strokeColor=none;rounded=0;" vertex="1" parent="E1siyjuTaNm7iV4Au7DL-34">
          <mxGeometry y="212" width="160" height="20" as="geometry" />
        </mxCell>
        <mxCell id="E1siyjuTaNm7iV4Au7DL-48" value="Bullet" style="swimlane;fontStyle=0;align=center;verticalAlign=top;childLayout=stackLayout;horizontal=1;startSize=30;horizontalStack=0;resizeParent=1;resizeLast=0;collapsible=1;marginBottom=0;rounded=0;shadow=0;strokeWidth=1;swimlaneFillColor=none;" vertex="1" parent="WIyWlLk6GJQsqaUBKTNV-1">
          <mxGeometry x="910" y="330" width="160" height="212" as="geometry">
            <mxRectangle x="130" y="380" width="160" height="26" as="alternateBounds" />
          </mxGeometry>
        </mxCell>
        <mxCell id="E1siyjuTaNm7iV4Au7DL-49" value="pos" style="text;align=left;verticalAlign=top;spacingLeft=4;spacingRight=4;overflow=hidden;rotatable=0;points=[[0,0.5],[1,0.5]];portConstraint=eastwest;" vertex="1" parent="E1siyjuTaNm7iV4Au7DL-48">
          <mxGeometry y="30" width="160" height="26" as="geometry" />
        </mxCell>
        <mxCell id="E1siyjuTaNm7iV4Au7DL-50" value="img" style="text;align=left;verticalAlign=top;spacingLeft=4;spacingRight=4;overflow=hidden;rotatable=0;points=[[0,0.5],[1,0.5]];portConstraint=eastwest;rounded=0;shadow=0;html=0;" vertex="1" parent="E1siyjuTaNm7iV4Au7DL-48">
          <mxGeometry y="56" width="160" height="34" as="geometry" />
        </mxCell>
        <mxCell id="E1siyjuTaNm7iV4Au7DL-51" value="speed" style="text;html=1;resizable=0;autosize=1;align=left;verticalAlign=middle;points=[];fillColor=none;strokeColor=none;rounded=0;" vertex="1" parent="E1siyjuTaNm7iV4Au7DL-48">
          <mxGeometry y="90" width="160" height="20" as="geometry" />
        </mxCell>
        <mxCell id="E1siyjuTaNm7iV4Au7DL-52" value="rect" style="text;align=left;verticalAlign=top;spacingLeft=4;spacingRight=4;overflow=hidden;rotatable=0;points=[[0,0.5],[1,0.5]];portConstraint=eastwest;fontStyle=4" vertex="1" parent="E1siyjuTaNm7iV4Au7DL-48">
          <mxGeometry y="110" width="160" height="26" as="geometry" />
        </mxCell>
        <mxCell id="E1siyjuTaNm7iV4Au7DL-53" value="rect.center" style="text;align=left;verticalAlign=top;spacingLeft=4;spacingRight=4;overflow=hidden;rotatable=0;points=[[0,0.5],[1,0.5]];portConstraint=eastwest;" vertex="1" parent="E1siyjuTaNm7iV4Au7DL-48">
          <mxGeometry y="136" width="160" height="26" as="geometry" />
        </mxCell>
        <mxCell id="E1siyjuTaNm7iV4Au7DL-54" value="damage" style="text;html=1;resizable=0;autosize=1;align=left;verticalAlign=middle;points=[];fillColor=none;strokeColor=none;rounded=0;" vertex="1" parent="E1siyjuTaNm7iV4Au7DL-48">
          <mxGeometry y="162" width="160" height="20" as="geometry" />
        </mxCell>
        <mxCell id="E1siyjuTaNm7iV4Au7DL-56" value="" style="line;html=1;strokeWidth=1;align=left;verticalAlign=middle;spacingTop=-1;spacingLeft=3;spacingRight=3;rotatable=0;labelPosition=right;points=[];portConstraint=eastwest;" vertex="1" parent="E1siyjuTaNm7iV4Au7DL-48">
          <mxGeometry y="182" width="160" height="10" as="geometry" />
        </mxCell>
        <mxCell id="E1siyjuTaNm7iV4Au7DL-57" value="move(self)" style="text;html=1;resizable=0;autosize=1;align=left;verticalAlign=middle;points=[];fillColor=none;strokeColor=none;rounded=0;" vertex="1" parent="E1siyjuTaNm7iV4Au7DL-48">
          <mxGeometry y="192" width="160" height="20" as="geometry" />
        </mxCell>
      </root>
    </mxGraphModel>
  </diagram>
</mxfile>
